<svg width="52" height="52" viewBox="0 0 52 52" fill="none" xmlns="http://www.w3.org/2000/svg">
    <path d="M39.2371 28.4951L44 25.8218L38.8041 22.9109C34.6598 20.5941 31.2577 17.2673 28.9691 13.2277L26 8L23.0309 13.2277C20.7423 17.2673 17.3402 20.5941 13.1959 22.9109L8 25.8218L12.7629 28.4951C16.5979 26.8317 21.1134 25.8218 26.0619 25.8218C31.0103 25.8218 35.4639 26.8317 39.3608 28.4951H39.2371Z" fill="#FFB03A"/>
    <path d="M18.0206 32.6535C20 34.4356 21.7938 36.4554 23.0928 38.7723L26.0618 44L29.0309 38.7723C30.3299 36.4554 32.1237 34.4356 34.1031 32.6535C31.6289 31.9406 28.9072 31.4653 26 31.4653C23.0928 31.4653 20.3711 31.8812 17.8969 32.6535H18.0206Z" fill="#FFB03A"/>
</svg>
