<svg width="40" height="40" viewBox="0 0 40 40" fill="none" xmlns="http://www.w3.org/2000/svg">
<path d="M36.249 13.6435C36.0598 13.7549 31.5565 16.1062 31.5565 21.3196C31.7688 27.2652 37.2395 29.3503 37.3333 29.3503C37.2395 29.4617 36.5074 32.1907 34.3388 35.0514C32.6178 37.5156 30.7075 40 27.8069 40C25.0477 40 24.0572 38.3577 20.8735 38.3577C17.4545 38.3577 16.4871 40 13.8694 40C10.9687 40 8.91701 37.3824 7.10216 34.9414C4.74439 31.7465 2.74036 26.7327 2.66961 21.9187C2.62193 19.3677 3.14178 16.8601 4.46139 14.7301C6.32393 11.7566 9.6491 9.7381 13.2803 9.67154C16.0626 9.58327 18.5388 11.4687 20.2368 11.4687C21.864 11.4687 24.9062 9.67154 28.3482 9.67154C29.834 9.67299 33.7959 10.0941 36.249 13.6435ZM20.0015 9.16221C19.5062 6.83259 20.8735 4.50297 22.147 3.01693C23.7742 1.21979 26.3442 0 28.5605 0C28.702 2.32962 27.8053 4.61438 26.2027 6.2784C24.7647 8.07553 22.2885 9.42845 20.0015 9.16221Z" fill="black"/>
</svg>
