<svg width="40" height="40" viewBox="0 0 40 40" fill="none" xmlns="http://www.w3.org/2000/svg">
<g clip-path="url(#clip0_236_200)">
<path d="M20 0C14.6957 0 9.60859 2.10714 5.85786 5.85786C2.10714 9.60859 0 14.6957 0 20C0 25.3043 2.10714 30.3914 5.85786 34.1421C9.60859 37.8929 14.6957 40 20 40C25.3043 40 30.3914 37.8929 34.1421 34.1421C37.8929 30.3914 40 25.3043 40 20C40 14.6957 37.8929 9.60859 34.1421 5.85786C30.3914 2.10714 25.3043 0 20 0Z" fill="#039BE5"/>
<path d="M22.7199 25.2032H27.931L28.7491 19.9103H22.7188V17.0175C22.7188 14.8188 23.4374 12.869 25.4945 12.869H28.8V8.25007C28.2192 8.17166 26.9909 8 24.6699 8C19.8235 8 16.9821 10.559 16.9821 16.3892V19.9103H12V25.2032H16.9821V39.751C17.9688 39.8993 18.9682 40 19.9941 40C20.9214 40 21.8265 39.9152 22.7199 39.7944V25.2032Z" fill="white"/>
</g>
<defs>
<clipPath id="clip0_236_200">
<rect width="40" height="40" fill="white"/>
</clipPath>
</defs>
</svg>
