<svg width="40" height="40" viewBox="0 0 40 40" fill="none" xmlns="http://www.w3.org/2000/svg">
<g clip-path="url(#clip0_236_192)">
<path d="M39.611 16.083H38V16H20V24H31.303C29.654 28.657 25.223 32 20 32C13.373 32 7.99999 26.627 7.99999 20C7.99999 13.373 13.373 7.99999 20 7.99999C23.059 7.99999 25.842 9.15399 27.961 11.039L33.618 5.382C30.046 2.053 25.268 0 20 0C8.95499 0 0 8.95499 0 20C0 31.045 8.95499 40 20 40C31.045 40 40 31.045 40 20C40 18.659 39.862 17.35 39.611 16.083Z" fill="#FFC107"/>
<path d="M2.30603 10.691L8.87702 15.51C10.655 11.108 14.961 7.99999 20 7.99999C23.059 7.99999 25.842 9.15399 27.961 11.039L33.618 5.382C30.046 2.053 25.268 0 20 0C12.318 0 5.65603 4.337 2.30603 10.691Z" fill="#FF3D00"/>
<path d="M20.0001 39.9999C25.1661 39.9999 29.8601 38.0229 33.409 34.8079L27.2191 29.5699C25.2111 31.0909 22.7151 31.9999 20.0001 31.9999C14.7981 31.9999 10.3811 28.683 8.71706 24.054L2.19507 29.0789C5.50507 35.5559 12.2271 39.9999 20.0001 39.9999Z" fill="#4CAF50"/>
<path d="M39.611 16.083H38V16H20V24H31.303C30.511 26.237 29.072 28.166 27.216 29.571L27.219 29.569L33.409 34.807C32.971 35.205 40 30 40 20C40 18.659 39.862 17.35 39.611 16.083Z" fill="#1976D2"/>
</g>
<defs>
<clipPath id="clip0_236_192">
<rect width="40" height="40" fill="white"/>
</clipPath>
</defs>
</svg>
