<svg width="32" height="32" viewBox="0 0 32 32" fill="none" xmlns="http://www.w3.org/2000/svg">
<path fill-rule="evenodd" clip-rule="evenodd" d="M5.33317 16.0001C5.33336 13.9474 5.92585 11.9383 7.03955 10.2139C8.15325 8.48958 9.74085 7.12321 11.6118 6.27877C13.4828 5.43433 15.5578 5.14769 17.5876 5.45325C19.6175 5.7588 21.5161 6.64358 23.0555 8.00141C24.595 9.35923 25.71 11.1324 26.2667 13.1082C26.8234 15.084 26.7982 17.1785 26.1941 19.1403C25.59 21.1021 24.4326 22.848 22.8609 24.1683C21.2891 25.4887 19.3698 26.3275 17.3332 26.5841V18.6667H19.9998C20.3535 18.6667 20.6926 18.5263 20.9426 18.2762C21.1927 18.0262 21.3332 17.687 21.3332 17.3334C21.3332 16.9798 21.1927 16.6407 20.9426 16.3906C20.6926 16.1406 20.3535 16.0001 19.9998 16.0001H17.3332V13.3334C17.3332 12.9798 17.4736 12.6407 17.7237 12.3906C17.9737 12.1406 18.3129 12.0001 18.6665 12.0001H19.3332C19.6868 12.0001 20.0259 11.8596 20.276 11.6096C20.526 11.3595 20.6665 11.0204 20.6665 10.6667C20.6665 10.3131 20.526 9.97399 20.276 9.72394C20.0259 9.47389 19.6868 9.33342 19.3332 9.33342H18.6665C17.6056 9.33342 16.5882 9.75484 15.8381 10.505C15.0879 11.2551 14.6665 12.2725 14.6665 13.3334V16.0001H11.9998C11.6462 16.0001 11.3071 16.1406 11.057 16.3906C10.807 16.6407 10.6665 16.9798 10.6665 17.3334C10.6665 17.687 10.807 18.0262 11.057 18.2762C11.3071 18.5263 11.6462 18.6667 11.9998 18.6667H14.6665V26.5841C12.0887 26.2593 9.71798 25.0048 7.99951 23.056C6.28103 21.1073 5.33293 18.5983 5.33317 16.0001ZM15.9998 29.3334C23.3638 29.3334 29.3332 23.3641 29.3332 16.0001C29.3332 8.63608 23.3638 2.66675 15.9998 2.66675C8.63584 2.66675 2.6665 8.63608 2.6665 16.0001C2.6665 23.3641 8.63584 29.3334 15.9998 29.3334Z" fill="#E6E6E6"/>
</svg>
