<svg width="32" height="32" viewBox="0 0 32 32" fill="none" xmlns="http://www.w3.org/2000/svg">
<path fill-rule="evenodd" clip-rule="evenodd" d="M7.26665 6.16408C9.32932 3.96541 12.32 2.66675 16.0227 2.66675C22.1093 2.66675 26.1453 6.17475 27.4227 11.0361C27.5125 11.3782 27.4627 11.742 27.2843 12.0474C27.1059 12.3529 26.8135 12.5749 26.4713 12.6647C26.1292 12.7546 25.7654 12.7048 25.46 12.5264C25.1545 12.348 24.9325 12.0555 24.8427 11.7134C23.8733 8.02941 20.9013 5.33341 16.0213 5.33341C12.9733 5.33341 10.7147 6.38541 9.21332 7.98675C7.69865 9.60275 6.85465 11.8841 6.85465 14.5001V17.5001C6.85465 20.1161 7.69865 22.3974 9.21332 24.0121C10.7147 25.6161 12.9733 26.6667 16.0213 26.6667C18.228 26.6667 19.9787 26.1547 21.3227 25.3267C22.676 24.4934 23.4827 23.3881 23.7093 22.1201C23.9693 20.6587 23.6493 19.6561 23.0987 18.9321C22.7967 18.5425 22.4295 18.2083 22.0133 17.9441C21.8333 18.9427 21.512 19.8854 21.0267 20.6241C19.2373 23.3427 15.816 23.5761 13.56 22.6761C12.3387 22.1894 11.292 20.8574 10.9667 19.4294C10.7691 18.6109 10.8349 17.751 11.1547 16.9721C11.508 16.1241 12.1627 15.4014 13.0947 14.8521C14.0173 14.3067 15.388 14.0561 16.7467 14.0187C17.5653 13.9961 18.4533 14.0507 19.3467 14.1961C19.16 13.3294 18.844 12.6827 18.488 12.3507C17.8427 11.7507 16.7733 11.3281 15.7013 11.3347C14.6653 11.3427 13.7867 11.7414 13.2613 12.5814C13.0739 12.8813 12.775 13.0944 12.4305 13.1739C12.0859 13.2535 11.7239 13.1928 11.424 13.0054C11.1241 12.818 10.911 12.5191 10.8315 12.1746C10.7519 11.83 10.8126 11.468 11 11.1681C12.116 9.38408 13.9547 8.68141 15.684 8.66808C17.3773 8.65608 19.1213 9.29741 20.3053 10.3987C21.5027 11.5134 22.0173 13.3414 22.1507 15.0041C23.316 15.5121 24.4173 16.2574 25.224 17.3201C26.2653 18.6934 26.7133 20.4641 26.3347 22.5881C25.948 24.7534 24.5813 26.4521 22.7213 27.5974C20.8973 28.7201 18.6467 29.3334 16.0213 29.3334C12.32 29.3334 9.32799 28.0347 7.26799 25.8361C5.21999 23.6521 4.18799 20.6841 4.18799 17.5001V14.5001C4.18799 11.3161 5.21999 8.34808 7.26799 6.16408H7.26665ZM19.4667 16.9334C18.597 16.7459 17.708 16.6626 16.8187 16.6854C15.6307 16.7174 14.7973 16.9427 14.4493 17.1481C13.9373 17.4507 13.716 17.7587 13.6173 17.9974C13.5121 18.265 13.4943 18.5591 13.5667 18.8374C13.7293 19.5521 14.2667 20.0881 14.548 20.1987C16.0493 20.7987 17.928 20.4814 18.7987 19.1587C19.112 18.6814 19.3613 17.8787 19.4653 16.9334H19.4667Z" fill="#E6E6E6"/>
</svg>
