<svg width="36" height="36" viewBox="0 0 36 36" fill="none" xmlns="http://www.w3.org/2000/svg">
<path d="M18.5234 6.75V8.0127H27.4326V9.03906H18.5234V28.2236H23.6143V29.25H12.3867V28.2236H17.4775V9.03906H8.56836V8.0127H17.4775V6.75H18.5234ZM12.1621 15.5918C12.7688 16.1939 13.1816 16.9604 13.3486 17.7939C13.5156 18.6272 13.4302 19.4911 13.1025 20.2764C12.7747 21.0619 12.2188 21.7346 11.5049 22.208C10.7909 22.6815 9.95062 22.9346 9.09082 22.9346C8.23106 22.9346 7.39074 22.6815 6.67676 22.208C5.96295 21.7346 5.4079 21.0618 5.08008 20.2764C4.75234 19.491 4.66604 18.6273 4.83301 17.7939C5.00005 16.9604 5.41289 16.1939 6.01953 15.5918L9.09082 12.543L12.1621 15.5918ZM29.9805 15.5918C30.5871 16.1939 31 16.9604 31.167 17.7939C31.334 18.6273 31.2477 19.491 30.9199 20.2764C30.5921 21.0618 30.0371 21.7346 29.3232 22.208C28.6093 22.6815 27.7689 22.9346 26.9092 22.9346C26.0494 22.9346 25.2091 22.6815 24.4951 22.208C23.7812 21.7346 23.2253 21.0619 22.8975 20.2764C22.5698 19.4911 22.4844 18.6272 22.6514 17.7939C22.8184 16.9604 23.2312 16.1939 23.8379 15.5918L26.9092 12.543L29.9805 15.5918ZM8.56348 14.5273L6.76367 16.3135C6.14512 16.9273 5.79609 17.7612 5.7959 18.6318V19.3818H6.5459L11.6367 19.3828H12.3867V18.6328C12.3867 17.748 12.0354 16.9246 11.4199 16.3135L9.62012 14.5273L9.0918 14.0029L8.56348 14.5273ZM26.3818 14.5273L24.582 16.3135C23.9634 16.9273 23.6144 17.7612 23.6143 18.6318V19.3818H24.3643L29.4551 19.3828H30.2051V18.6328C30.2051 17.7479 29.8531 16.9246 29.2373 16.3135L27.4385 14.5273L26.9102 14.0029L26.3818 14.5273Z" fill="#474747" stroke="#FFB03A" stroke-width="1.5"/>
</svg>
