<svg width="36" height="36" viewBox="0 0 36 36" fill="none" xmlns="http://www.w3.org/2000/svg">
<path d="M11.7002 7.5H11.7012C12.6961 7.49949 13.6768 7.73836 14.5596 8.19629C15.4423 8.65424 16.201 9.31812 16.7725 10.1309C17.0532 10.5301 17.511 10.7673 17.999 10.7676C18.4871 10.7678 18.9454 10.5308 19.2266 10.1318C20.3502 8.53771 22.2037 7.50006 24.2998 7.5C27.7255 7.5 30.5 10.274 30.5 13.6914C30.4998 16.9598 28.5421 20.2697 25.7725 23.0635C23.2095 25.6488 20.1704 27.5665 18 28.4053C15.8296 27.5665 12.7905 25.6488 10.2275 23.0635C7.45789 20.2697 5.50018 16.9598 5.5 13.6914C5.5 10.274 8.27446 7.5 11.7002 7.5Z" stroke="#FFB03A" stroke-width="3" stroke-linecap="round" stroke-linejoin="round"/>
</svg>
