<svg width="44" height="36" viewBox="0 0 44 36" fill="none" xmlns="http://www.w3.org/2000/svg">
<rect x="1.5" y="1.5" width="41" height="33" rx="6.5" stroke="#4E4B3D" stroke-width="3"/>
<path d="M30.4444 28L23.4444 21C22.8889 21.4444 22.25 21.7963 21.5278 22.0556C20.8056 22.3148 20.037 22.4444 19.2222 22.4444C17.2037 22.4444 15.4956 21.7452 14.0978 20.3467C12.7 18.9481 12.0007 17.24 12 15.2222C11.9993 13.2044 12.6985 11.4963 14.0978 10.0978C15.497 8.69926 17.2052 8 19.2222 8C21.2393 8 22.9478 8.69926 24.3478 10.0978C25.7478 11.4963 26.4467 13.2044 26.4444 15.2222C26.4444 16.037 26.3148 16.8056 26.0556 17.5278C25.7963 18.25 25.4444 18.8889 25 19.4444L32 26.4444L30.4444 28ZM19.2222 20.2222C20.6111 20.2222 21.7919 19.7363 22.7644 18.7644C23.737 17.7926 24.223 16.6119 24.2222 15.2222C24.2215 13.8326 23.7356 12.6522 22.7644 11.6811C21.7933 10.71 20.6126 10.2237 19.2222 10.2222C17.8319 10.2207 16.6515 10.707 15.6811 11.6811C14.7107 12.6552 14.2244 13.8356 14.2222 15.2222C14.22 16.6089 14.7063 17.7896 15.6811 18.7644C16.6559 19.7393 17.8363 20.2252 19.2222 20.2222Z" fill="#FFB03A"/>
</svg>
