<svg width="36" height="36" viewBox="0 0 36 36" fill="none" xmlns="http://www.w3.org/2000/svg">
<mask id="path-1-inside-1_693_757" fill="white">
<path d="M15.8398 4.94789C16.0917 4.66501 16.4041 4.4347 16.7568 4.27181C17.1096 4.10891 17.4949 4.01705 17.888 4.00216C18.281 3.98726 18.673 4.04965 19.0387 4.18532C19.4043 4.32098 19.7356 4.52689 20.011 4.78978L20.163 4.94789L25.6979 11.1641H29.8987C30.194 11.1635 30.4861 11.2214 30.7559 11.3338C31.0257 11.4463 31.2671 11.6108 31.4643 11.8167C31.6615 12.0225 31.81 12.2651 31.9 12.5284C31.9901 12.7917 32.0198 13.0699 31.9871 13.3447L31.8576 14.3539L31.7169 15.3289L31.6015 16.0589L31.4678 16.8428L31.3158 17.6663L31.1441 18.5201L30.9527 19.391C30.8514 19.8302 30.7426 20.2689 30.6263 20.7072C30.3147 21.8641 29.9236 23.0009 29.4554 24.1105L29.1444 24.8219L28.8432 25.4649L28.5589 26.0367L28.4267 26.2923L28.0762 26.9379C27.6259 27.7417 26.7759 28.216 25.8766 28.2845L25.6515 28.2924H10.3387C9.84673 28.2958 9.36298 28.1741 8.93913 27.9402C8.51529 27.7063 8.16727 27.369 7.93224 26.9643L7.60575 26.3714L7.35244 25.8839L7.21875 25.6138L6.93729 25.0222C6.29458 23.625 5.77313 22.1815 5.37801 20.7059C5.30161 20.4194 5.22843 20.1321 5.15847 19.8442L4.95864 18.9904L4.77991 18.1551L4.62229 17.3474L4.48156 16.574L4.35913 15.8441L4.25499 15.1682L4.12833 14.2683L4.03545 13.5357L4.01153 13.3341C3.98242 13.0753 4.00858 12.8136 4.08848 12.5643C4.16839 12.315 4.30045 12.0831 4.47698 11.882C4.65351 11.6809 4.87098 11.5147 5.11675 11.3931C5.36252 11.2714 5.63167 11.1967 5.90856 11.1734L6.09995 11.1641H10.3063L15.8398 4.94789ZM29.0951 13.7992H6.90211L6.98936 14.4369L7.09631 15.159L7.22578 15.9548L7.37777 16.8086C7.43406 17.101 7.49317 17.4006 7.55509 17.7071L7.75633 18.6386C7.86329 19.1103 7.9815 19.5899 8.10816 20.0669C8.4653 21.3987 8.9359 22.7015 9.51545 23.9629L9.79128 24.5439L10.0474 25.0499L10.2768 25.4755L10.3781 25.6573H25.6149L25.8316 25.2581L26.0807 24.7771L26.3537 24.2198C26.8702 23.1328 27.4613 21.6927 27.8947 20.0669C28.0706 19.4081 28.2268 18.7388 28.3661 18.0813L28.5632 17.109L28.732 16.1748L28.8066 15.7282L28.9403 14.8889L29.0487 14.1379L29.0951 13.7992ZM15.1671 17.5358L15.8708 21.4885C15.9199 21.828 15.8259 22.172 15.6087 22.4477C15.3914 22.7233 15.0681 22.9089 14.7071 22.9651C14.3462 23.0213 13.9761 22.9437 13.6752 22.7487C13.3744 22.5538 13.1665 22.2568 13.0956 21.9207L12.392 17.968C12.3555 17.795 12.3564 17.6169 12.3948 17.4442C12.4332 17.2715 12.5083 17.1078 12.6155 16.9628C12.7227 16.8178 12.8599 16.6944 13.019 16.6C13.1781 16.5056 13.3559 16.442 13.5417 16.4131C13.7275 16.3841 13.9177 16.3904 14.1008 16.4315C14.284 16.4727 14.4565 16.5478 14.6081 16.6525C14.7597 16.7572 14.8873 16.8894 14.9833 17.0411C15.0793 17.1928 15.1418 17.3611 15.1671 17.5358ZM22.2909 16.4344L22.4541 16.4515C22.7947 16.5041 23.1028 16.6721 23.3197 16.9236C23.5366 17.175 23.6473 17.4923 23.6306 17.8152L23.6123 17.968L22.9087 21.9207C22.849 22.2515 22.6567 22.5486 22.3711 22.7513C22.0854 22.954 21.7279 23.047 21.3716 23.0114C21.0152 22.9757 20.6868 22.8141 20.4533 22.5595C20.2198 22.305 20.0989 21.9766 20.1152 21.6414L20.1335 21.4885L20.8371 17.5358C20.8933 17.2174 21.0723 16.9294 21.3403 16.7263C21.6083 16.5233 21.9465 16.4194 22.2909 16.4344ZM18.0014 6.63436L13.9695 11.1641H22.0333L18.0014 6.63436Z"/>
</mask>
<path d="M15.8398 4.94789C16.0917 4.66501 16.4041 4.4347 16.7568 4.27181C17.1096 4.10891 17.4949 4.01705 17.888 4.00216C18.281 3.98726 18.673 4.04965 19.0387 4.18532C19.4043 4.32098 19.7356 4.52689 20.011 4.78978L20.163 4.94789L25.6979 11.1641H29.8987C30.194 11.1635 30.4861 11.2214 30.7559 11.3338C31.0257 11.4463 31.2671 11.6108 31.4643 11.8167C31.6615 12.0225 31.81 12.2651 31.9 12.5284C31.9901 12.7917 32.0198 13.0699 31.9871 13.3447L31.8576 14.3539L31.7169 15.3289L31.6015 16.0589L31.4678 16.8428L31.3158 17.6663L31.1441 18.5201L30.9527 19.391C30.8514 19.8302 30.7426 20.2689 30.6263 20.7072C30.3147 21.8641 29.9236 23.0009 29.4554 24.1105L29.1444 24.8219L28.8432 25.4649L28.5589 26.0367L28.4267 26.2923L28.0762 26.9379C27.6259 27.7417 26.7759 28.216 25.8766 28.2845L25.6515 28.2924H10.3387C9.84673 28.2958 9.36298 28.1741 8.93913 27.9402C8.51529 27.7063 8.16727 27.369 7.93224 26.9643L7.60575 26.3714L7.35244 25.8839L7.21875 25.6138L6.93729 25.0222C6.29458 23.625 5.77313 22.1815 5.37801 20.7059C5.30161 20.4194 5.22843 20.1321 5.15847 19.8442L4.95864 18.9904L4.77991 18.1551L4.62229 17.3474L4.48156 16.574L4.35913 15.8441L4.25499 15.1682L4.12833 14.2683L4.03545 13.5357L4.01153 13.3341C3.98242 13.0753 4.00858 12.8136 4.08848 12.5643C4.16839 12.315 4.30045 12.0831 4.47698 11.882C4.65351 11.6809 4.87098 11.5147 5.11675 11.3931C5.36252 11.2714 5.63167 11.1967 5.90856 11.1734L6.09995 11.1641H10.3063L15.8398 4.94789ZM29.0951 13.7992H6.90211L6.98936 14.4369L7.09631 15.159L7.22578 15.9548L7.37777 16.8086C7.43406 17.101 7.49317 17.4006 7.55509 17.7071L7.75633 18.6386C7.86329 19.1103 7.9815 19.5899 8.10816 20.0669C8.4653 21.3987 8.9359 22.7015 9.51545 23.9629L9.79128 24.5439L10.0474 25.0499L10.2768 25.4755L10.3781 25.6573H25.6149L25.8316 25.2581L26.0807 24.7771L26.3537 24.2198C26.8702 23.1328 27.4613 21.6927 27.8947 20.0669C28.0706 19.4081 28.2268 18.7388 28.3661 18.0813L28.5632 17.109L28.732 16.1748L28.8066 15.7282L28.9403 14.8889L29.0487 14.1379L29.0951 13.7992ZM15.1671 17.5358L15.8708 21.4885C15.9199 21.828 15.8259 22.172 15.6087 22.4477C15.3914 22.7233 15.0681 22.9089 14.7071 22.9651C14.3462 23.0213 13.9761 22.9437 13.6752 22.7487C13.3744 22.5538 13.1665 22.2568 13.0956 21.9207L12.392 17.968C12.3555 17.795 12.3564 17.6169 12.3948 17.4442C12.4332 17.2715 12.5083 17.1078 12.6155 16.9628C12.7227 16.8178 12.8599 16.6944 13.019 16.6C13.1781 16.5056 13.3559 16.442 13.5417 16.4131C13.7275 16.3841 13.9177 16.3904 14.1008 16.4315C14.284 16.4727 14.4565 16.5478 14.6081 16.6525C14.7597 16.7572 14.8873 16.8894 14.9833 17.0411C15.0793 17.1928 15.1418 17.3611 15.1671 17.5358ZM22.2909 16.4344L22.4541 16.4515C22.7947 16.5041 23.1028 16.6721 23.3197 16.9236C23.5366 17.175 23.6473 17.4923 23.6306 17.8152L23.6123 17.968L22.9087 21.9207C22.849 22.2515 22.6567 22.5486 22.3711 22.7513C22.0854 22.954 21.7279 23.047 21.3716 23.0114C21.0152 22.9757 20.6868 22.8141 20.4533 22.5595C20.2198 22.305 20.0989 21.9766 20.1152 21.6414L20.1335 21.4885L20.8371 17.5358C20.8933 17.2174 21.0723 16.9294 21.3403 16.7263C21.6083 16.5233 21.9465 16.4194 22.2909 16.4344ZM18.0014 6.63436L13.9695 11.1641H22.0333L18.0014 6.63436Z" fill="#393939" stroke="#FFB03A" stroke-width="3" mask="url(#path-1-inside-1_693_757)"/>
</svg>
