<svg width="36" height="36" viewBox="0 0 36 36" fill="none" xmlns="http://www.w3.org/2000/svg">
<path fill-rule="evenodd" clip-rule="evenodd" d="M23.091 14.1818C23.091 15.532 22.5546 16.8269 21.5999 17.7816C20.6452 18.7364 19.3503 19.2727 18.0001 19.2727C16.6499 19.2727 15.355 18.7364 14.4003 17.7816C13.4455 16.8269 12.9092 15.532 12.9092 14.1818C12.9092 12.8316 13.4455 11.5367 14.4003 10.582C15.355 9.62727 16.6499 9.09091 18.0001 9.09091C19.3503 9.09091 20.6452 9.62727 21.5999 10.582C22.5546 11.5367 23.091 12.8316 23.091 14.1818ZM20.5455 14.1818C20.5455 14.8569 20.2774 15.5044 19.8 15.9817C19.3226 16.4591 18.6752 16.7273 18.0001 16.7273C17.325 16.7273 16.6775 16.4591 16.2002 15.9817C15.7228 15.5044 15.4546 14.8569 15.4546 14.1818C15.4546 13.5067 15.7228 12.8593 16.2002 12.3819C16.6775 11.9045 17.325 11.6364 18.0001 11.6364C18.6752 11.6364 19.3226 11.9045 19.8 12.3819C20.2774 12.8593 20.5455 13.5067 20.5455 14.1818Z" fill="#FFB03A"/>
<path d="M18 4.75C25.3176 4.75 31.25 10.6824 31.25 18C31.25 25.3176 25.3176 31.25 18 31.25C10.6824 31.25 4.75 25.3176 4.75 18C4.75 10.6824 10.6824 4.75 18 4.75ZM18.083 22.3408C16.5289 22.3395 14.9975 22.7138 13.6191 23.4316C12.2407 24.1496 11.0559 25.1905 10.166 26.4648L9.76758 27.0352L10.3076 27.4756C12.4807 29.245 15.1986 30.2086 18.001 30.2041L18 30.2031C20.8517 30.2073 23.614 29.2097 25.8037 27.3828L26.3389 26.9365L25.9326 26.3701C25.039 25.1225 23.8604 24.106 22.4951 23.4053C21.13 22.7046 19.6174 22.3396 18.083 22.3408ZM21.9062 6.43848C20.0703 5.81829 18.1128 5.64428 16.1963 5.93066C14.2798 6.21706 12.4591 6.95618 10.8848 8.08594C9.31047 9.21567 8.02751 10.7039 7.14258 12.4277C6.25764 14.1517 5.79614 16.0621 5.7959 18L5.80664 18.5283C5.91879 21.1575 6.86375 23.5732 8.38281 25.5156L8.98145 26.2812L9.57031 25.5078C10.5687 24.1974 11.8565 23.135 13.333 22.4043C14.8094 21.6737 16.4348 21.2949 18.082 21.2959H18.084C19.71 21.2941 21.3149 21.6634 22.7764 22.376C24.2379 23.0886 25.5177 24.1259 26.5176 25.4082L27.1152 26.1748L27.7051 25.4014C28.88 23.8604 29.6719 22.0617 30.0137 20.1543C30.3555 18.2468 30.2376 16.2848 29.6709 14.4316C29.1041 12.5787 28.1041 10.8869 26.7539 9.49707C25.4037 8.10726 23.742 7.05864 21.9062 6.43848Z" fill="#474747" stroke="#FFB03A" stroke-width="1.5"/>
</svg>
