<svg width="24" height="26" viewBox="0 0 24 26" fill="none" xmlns="http://www.w3.org/2000/svg">
<path d="M12 0.75C14.9926 0.75 17.8571 1.8948 19.9648 3.92383C22.0715 5.95192 23.2499 8.6964 23.25 11.5518C23.25 15.2032 21.1801 18.2504 18.8877 20.5068C17.7443 21.6197 16.4959 22.6288 15.1592 23.5215L14.6035 23.8857L14.3428 24.0527L13.8584 24.3496L13.4238 24.6055L12.8711 24.9141C12.6071 25.0584 12.3071 25.1357 12 25.1357C11.6926 25.1357 11.3921 25.0586 11.1279 24.9141L10.5898 24.6133L9.89844 24.2031L9.66406 24.0566H9.66504L9.11719 23.7061C7.85701 22.8848 6.67292 21.9616 5.57715 20.9473L5.1123 20.5068C2.81973 18.2489 0.75 15.2031 0.75 11.5518C0.750126 8.6964 1.92845 5.95192 4.03516 3.92383C6.14292 1.8948 9.00739 0.75 12 0.75ZM12 1.81738C9.33474 1.81738 6.77287 2.83585 4.87988 4.6582C2.98604 6.48138 1.91712 8.96063 1.91699 11.5518C1.91699 14.8245 3.77549 17.6229 5.96875 19.7832L5.97168 19.7861C6.91741 20.7077 7.93945 21.5532 9.02734 22.3145L9.0332 22.3193L9.64355 22.7373L9.64941 22.7412C9.85296 22.878 10.0502 23.0053 10.2402 23.124L10.2432 23.127L10.7637 23.4473L10.7705 23.4521L10.7783 23.4561L11.2354 23.7246L11.2471 23.7314L11.6318 23.9482L12.002 24.1562L12.3711 23.9463L12.9775 23.6006L12.9863 23.5967L12.9941 23.5908L13.4834 23.2959L13.4873 23.2939C13.6222 23.2115 13.761 23.124 13.9043 23.0322L14.3477 22.7432L14.3555 22.7373L14.9668 22.3193L14.9727 22.3145C16.0605 21.5532 17.0826 20.7077 18.0283 19.7861L18.0312 19.7832C20.2248 17.624 22.083 14.8244 22.083 11.5518C22.0829 8.96063 21.014 6.48138 19.1201 4.6582C17.2271 2.83585 14.6653 1.81738 12 1.81738ZM12 7.16797C13.2245 7.16797 14.3934 7.63644 15.251 8.46191C16.1074 9.28641 16.5829 10.3985 16.583 11.5518C16.583 12.7051 16.1075 13.818 15.251 14.6426C14.3934 15.468 13.2245 15.9365 12 15.9365C10.7755 15.9365 9.60655 15.468 8.74902 14.6426C7.89245 13.818 7.41699 12.7051 7.41699 11.5518C7.41712 10.3985 7.89256 9.28641 8.74902 8.46191C9.60656 7.63644 10.7755 7.16797 12 7.16797ZM12 8.23535C11.1029 8.23535 10.2365 8.57753 9.59375 9.19629C8.95019 9.81587 8.58313 10.6628 8.58301 11.5518C8.58301 12.4409 8.95006 13.2885 9.59375 13.9082C10.2365 14.527 11.1029 14.8691 12 14.8691C12.8971 14.8691 13.7635 14.527 14.4062 13.9082C15.0499 13.2885 15.417 12.4409 15.417 11.5518C15.4169 10.6628 15.0498 9.81587 14.4062 9.19629C13.7635 8.57753 12.8971 8.23535 12 8.23535Z" fill="#474747" stroke="#FFB03A" stroke-width="1.5"/>
</svg>
