<svg width="32" height="32" viewBox="0 0 32 32" fill="none" xmlns="http://www.w3.org/2000/svg">
<path d="M21.9507 11.7946L20.4974 21.1C20.4774 21.2282 20.4258 21.3495 20.3473 21.453C20.2688 21.5564 20.1658 21.6387 20.0476 21.6925C19.9295 21.7463 19.7998 21.7699 19.6702 21.7612C19.5407 21.7525 19.4153 21.7117 19.3054 21.6426L14.4387 18.5933C14.3376 18.53 14.2522 18.4445 14.1891 18.3432C14.126 18.2419 14.0869 18.1276 14.0747 18.0089C14.0625 17.8902 14.0775 17.7703 14.1186 17.6583C14.1598 17.5463 14.2259 17.4452 14.3121 17.3626L18.3521 13.4906C18.3974 13.448 18.3441 13.3773 18.2907 13.4093L12.4347 16.9133C12.0867 17.1226 11.6733 17.1953 11.2747 17.1173L9.15474 16.708C8.3894 16.56 8.28407 15.5093 9.00274 15.212L20.3387 10.5253C20.5319 10.4449 20.7429 10.4176 20.9501 10.4459C21.1574 10.4743 21.3533 10.5575 21.5177 10.6868C21.682 10.8162 21.8089 10.987 21.8853 11.1817C21.9617 11.3765 21.9847 11.588 21.9521 11.7946" fill="#E6E6E6"/>
<path fill-rule="evenodd" clip-rule="evenodd" d="M16.0002 2.27466C8.42024 2.27466 2.2749 8.41999 2.2749 16C2.2749 23.58 8.42024 29.7253 16.0002 29.7253C23.5802 29.7253 29.7256 23.58 29.7256 16C29.7256 8.41999 23.5802 2.27466 16.0002 2.27466ZM4.6269 16C4.6269 14.5064 4.92108 13.0275 5.49265 11.6476C6.06421 10.2677 6.90196 9.01394 7.95807 7.95783C9.01419 6.90172 10.268 6.06397 11.6479 5.4924C13.0277 4.92084 14.5067 4.62666 16.0002 4.62666C17.4938 4.62666 18.9727 4.92084 20.3526 5.4924C21.7325 6.06397 22.9863 6.90172 24.0424 7.95783C25.0985 9.01394 25.9363 10.2677 26.5078 11.6476C27.0794 13.0275 27.3736 14.5064 27.3736 16C27.3736 19.0164 26.1753 21.9092 24.0424 24.0422C21.9095 26.1751 19.0166 27.3733 16.0002 27.3733C12.9838 27.3733 10.091 26.1751 7.95807 24.0422C5.82516 21.9092 4.6269 19.0164 4.6269 16Z" fill="#E6E6E6"/>
</svg>
