<svg width="134" height="36" viewBox="0 0 134 36" fill="none" xmlns="http://www.w3.org/2000/svg">
<path d="M131.5 34.3422C131.019 34.163 130.659 33.924 130.418 33.5655C130.298 33.3862 130.238 33.0875 130.118 32.7887C129.998 32.4302 129.938 32.012 129.817 31.534L125.431 5.42275L123.148 5.78126L111.431 26.0369L113.233 27.8294L114.014 26.4551H122.727L123.328 30.4584C123.508 31.7132 123.628 32.6095 123.628 33.0277C123.628 33.446 123.508 33.8045 123.328 33.924C123.148 34.1032 122.907 34.2228 122.607 34.2825L120.564 34.88L120.444 35.9555C122.907 35.9555 125.071 35.8958 127.053 35.8958C129.036 35.8958 131.26 35.8958 133.543 35.9555L133.663 34.88L131.44 34.2825L131.5 34.3422ZM115.216 24.2443L120.864 14.0867L122.367 24.2443H115.216Z" fill="#FFB03A"/>
<path d="M110.289 33.685C110.289 33.685 110.469 33.0277 110.71 32.5497L108.847 30.6974L108.126 31.9522C107.825 32.4302 106.263 34.1032 105.602 34.3423L98.9325 34.2228C98.5119 34.1033 98.3317 33.8642 98.3317 33.5057C98.4518 32.9082 100.435 22.153 100.435 22.153L102.478 19.285L100.855 17.6717L99.4132 19.7032L96.1084 10.8003C95.6277 9.60533 95.3874 8.82856 95.3874 8.41031C95.3874 8.11155 95.4475 7.87255 95.6277 7.69329C95.808 7.51404 96.0483 7.39454 96.3488 7.33479L98.4518 6.79703V5.66176C96.0483 5.72151 87.0352 5.72151 85.3527 5.66176L85.2326 6.79703L87.3356 7.39454C87.8764 7.57379 88.2369 7.8128 88.4773 8.23105C88.7176 8.64931 89.0181 9.24682 89.3786 10.1431L94.0654 22.4518C94.0654 22.4518 92.0826 32.968 91.9624 33.5655C91.8422 33.924 91.6019 34.1033 91.2413 34.2228C91.2413 34.2228 81.9878 34.7008 81.5071 34.402C80.4857 33.7447 79.7646 33.0277 79.2839 32.3705C78.8032 31.773 74.7773 21.5555 74.5971 21.1373C79.7045 19.4642 82.2883 16.5364 82.2883 12.4136C82.2883 10.1431 81.4471 8.4103 79.7045 7.27504C78.0221 6.13977 75.4984 5.54226 72.1335 5.54226C71.5927 5.54226 61.7383 5.66176 60.5967 5.66176L63.1804 7.63354C63.6011 7.99205 63.6011 8.58956 63.4208 9.00781L69.069 12.2344L69.9102 7.75304C70.2708 7.69329 70.6914 7.63354 71.112 7.63354C72.5541 7.63354 73.6357 8.11155 74.4168 8.94807C75.198 9.84433 75.5585 11.1589 75.5585 12.8319C75.5585 15.5804 69.5497 20.3008 69.5497 20.3008C69.73 20.8385 72.3738 31.6535 72.6142 32.3107C72.9747 33.1472 73.3352 33.8642 73.7559 34.402C74.1765 34.9398 74.5971 35.4775 75.198 35.6568C76.8203 36.1348 81.5672 36.075 83.3098 36.075C85.533 36.075 92.6834 36.075 94.6663 36.075C96.6492 36.075 105.963 36.075 107.525 36.075C109.087 36.075 110.83 36.075 112.753 36.1348L112.933 34.9995L110.95 34.402C110.469 34.2228 110.229 34.0435 110.229 33.7447L110.289 33.685Z" fill="#FFB03A"/>
<path d="M65.2236 33.3862C65.2836 32.8485 65.4038 32.1912 65.524 31.4742C65.6442 30.7572 65.8244 29.9804 65.9446 29.1439L67.3867 21.4958L60.1762 26.7539L59.7556 29.1439C59.6354 30.0402 59.4552 30.8169 59.2749 31.534C59.1547 32.251 58.9744 32.9082 58.9144 33.5057C58.7942 33.8642 58.5538 34.0435 58.1933 34.163L55.3692 34.9398L55.249 36.075C56.2705 36.075 57.3521 36.075 58.4938 36.0153H64.7429C65.7643 36.0153 66.8459 36.0153 67.8674 36.075L67.9876 34.9398L65.5841 34.2228C65.2836 34.1033 65.1034 33.8045 65.1635 33.3862H65.2236Z" fill="#FFB03A"/>
<path d="M106.985 8.0518C106.985 8.0518 106.804 8.64931 106.624 8.94807L108.427 10.7406L109.388 9.42607C109.749 8.94806 110.109 8.47006 110.47 8.1713C110.77 7.81279 111.251 7.57379 111.792 7.39454L114.255 6.67753L114.375 5.54226C112.753 5.60201 106.264 5.60201 104.581 5.54226L104.461 6.73728L106.324 7.27504C106.864 7.45429 107.105 7.69329 107.105 8.0518H106.985Z" fill="#FFB03A"/>
<path d="M10.8439 10.4418V8.23105C9.1014 8.23105 7.47904 8.23105 5.67642 8.23105L5.49615 8.4103L5.37598 15.9389C5.61633 15.1024 6.51764 12.5331 9.04132 11.1589C9.64219 10.8003 10.3032 10.6211 10.8439 10.5016V10.4418Z" fill="#FFB03A"/>
<path d="M48.8197 28.7854C44.6736 32.3107 38.1241 31.8925 33.0768 27.7099C26.8276 21.3763 28.8105 8.82856 39.6263 7.63354C26.1667 6.91653 23.0421 19.4045 27.068 28.1282L23.5829 33.8045H7.47946L27.4285 6.73728L27.5487 5.60201C25.5057 5.66176 23.3426 5.66176 21.0592 5.66176H16.072V7.87255H19.497L-0.572266 35.0593V36.075C1.17027 36.075 25.025 36.075 26.6474 36.075L28.0895 30.0402C31.2741 35.119 37.2228 38.0468 45.1544 34.5215C47.0771 33.685 48.6394 32.251 49.9013 30.6974L48.8798 28.8452L48.8197 28.7854Z" fill="#FFB03A"/>
<path d="M46.5361 21.5555C48.2186 23.1688 49.7208 24.9016 50.8624 26.9331L53.3861 31.534L55.9098 26.9331C57.0514 24.9016 58.5536 23.1091 60.2361 21.5555C58.133 20.8983 55.8497 20.5398 53.3861 20.5398C50.9225 20.5398 48.5791 20.8983 46.5361 21.5555Z" fill="#FFB03A"/>
<path d="M64.6827 18.2095L68.7687 15.8792L64.3222 13.3099C60.777 11.2784 57.8928 8.35056 55.97 4.76549L53.4463 0.164663L50.9227 4.76549C48.9398 8.2908 46.0556 11.2784 42.5705 13.3099L38.124 15.8792L42.21 18.2095C45.4547 16.7755 49.3604 15.8792 53.5064 15.8792C57.6525 15.8792 61.4981 16.7755 64.8029 18.2095H64.6827Z" fill="#FFB03A"/>
</svg>
